<svg width="31" height="34" viewBox="0 0 31 34" fill="none" xmlns="http://www.w3.org/2000/svg">
<path d="M0 4C0 1.79086 1.79086 0 4 0H26.2822C28.4914 0 30.2822 1.79086 30.2822 4V29.1986C30.2822 31.4077 28.4914 33.1986 26.2822 33.1986H4C1.79086 33.1986 0 31.4077 0 29.1986V4Z" fill="#DC2626"/>
<g clip-path="url(#clip0_114_163)">
<path d="M14.8307 16.1152C14.6256 15.4541 14.6297 14.1773 14.7486 14.1773C15.0932 14.1773 15.0604 15.702 14.8307 16.1152ZM14.7609 18.0655C14.445 18.9002 14.0512 19.8547 13.5958 20.6563C14.3466 20.3671 15.1958 19.9456 16.1763 19.7514C15.6553 19.3547 15.1548 18.7845 14.7609 18.0655ZM10.9004 23.2223C10.9004 23.2553 11.442 22.9992 12.3322 21.5612C12.0574 21.8215 11.1384 22.5736 10.9004 23.2223ZM17.5425 12.1443H23.1219V25.6974C23.1219 26.2469 22.6829 26.6891 22.1373 26.6891H8.35277C7.80714 26.6891 7.36816 26.2469 7.36816 25.6974V6.52478C7.36816 5.97522 7.80714 5.5331 8.35277 5.5331H16.5578V11.1526C16.5578 11.6981 17.0009 12.1443 17.5425 12.1443ZM17.2143 19.2431C16.3937 18.739 15.8481 18.0449 15.4625 17.0201C15.6471 16.2557 15.9384 15.0946 15.7168 14.3674C15.524 13.1525 13.9774 13.2724 13.7558 14.0864C13.5507 14.8425 13.7394 15.9086 14.0881 17.268C13.6122 18.4085 12.9107 19.9373 12.4143 20.8133C12.4102 20.8133 12.4102 20.8175 12.4061 20.8175C11.2943 21.3918 9.38661 22.6562 10.1702 23.6272C10.3999 23.9123 10.8266 24.0404 11.0522 24.0404C11.7866 24.0404 12.5168 23.2967 13.5589 21.4868C14.6173 21.1356 15.7784 20.6976 16.7999 20.5282C17.6901 21.0158 18.7322 21.334 19.4255 21.334C20.6235 21.334 20.7055 20.0117 20.2337 19.5407C19.6635 18.9787 18.006 19.1398 17.2143 19.2431ZM22.8347 9.87172L18.8142 5.82234C18.6296 5.6364 18.3794 5.5331 18.1168 5.5331H17.8707V10.8221H23.1219V10.57C23.1219 10.3097 23.0193 10.0577 22.8347 9.87172ZM19.7947 20.4208C19.963 20.3092 19.6922 19.9291 18.0389 20.0489C19.5609 20.7018 19.7947 20.4208 19.7947 20.4208Z" fill="white"/>
</g>
<defs>
<clipPath id="clip0_114_163">
<rect width="30.0753" height="27.6655" fill="white" transform="translate(0.207031 5.5331)"/>
</clipPath>
</defs>
</svg>
