<svg width="120" height="121" viewBox="0 0 120 121" fill="none" xmlns="http://www.w3.org/2000/svg">
<ellipse cx="60.2284" cy="60.7835" rx="59.3056" ry="60.1049" fill="white"/>
<path d="M115.034 60.7835C115.034 91.5502 90.4401 116.388 60.2284 116.388C30.0167 116.388 5.42285 91.5502 5.42285 60.7835C5.42285 30.0167 30.0167 5.17856 60.2284 5.17856C90.4401 5.17856 115.034 30.0167 115.034 60.7835Z" stroke="#6090D9" stroke-opacity="0.15" stroke-width="9"/>
<g clip-path="url(#clip0_4_203)">
<path d="M77.3522 54.5726H61.8587V60.3577C61.8587 64.4589 58.5663 67.7957 54.5196 67.7957C50.4729 67.7957 47.1806 64.4589 47.1806 60.3577V47.7958L40.5652 51.8247C38.5979 53.0127 37.3952 55.1718 37.3952 57.4858V62.3721L29.2406 67.1448C27.6811 68.0539 27.1409 70.0787 28.0481 71.6593L36.2026 85.9774C37.0996 87.558 39.0974 88.0951 40.657 87.1861L51.1967 81.0187H65.1205C68.7187 81.0187 71.6441 78.0539 71.6441 74.4072H73.275C75.0792 74.4072 76.5368 72.9299 76.5368 71.1014V64.4899H77.3522C78.7079 64.4899 79.7986 63.3845 79.7986 62.0106V57.0519C79.7986 55.6779 78.7079 54.5726 77.3522 54.5726ZM92.4075 50.709L84.253 36.3909C83.356 34.8103 81.3581 34.2731 79.7986 35.1822L69.2589 41.3495H58.8415C57.6183 41.3495 56.4257 41.7007 55.386 42.3516L51.9713 44.5106C51.0132 45.1098 50.4424 46.1739 50.4424 47.3102V60.3577C50.4424 62.6407 52.2669 64.4899 54.5196 64.4899C56.7723 64.4899 58.5969 62.6407 58.5969 60.3577V51.2668H77.3522C80.5019 51.2668 83.0604 53.8598 83.0604 57.0519V59.9961L91.2149 55.2234C92.7745 54.304 93.3045 52.2895 92.4075 50.709Z" fill="#6090D9"/>
</g>
<mask id="path-4-inside-1_4_203" fill="white">
<path fill-rule="evenodd" clip-rule="evenodd" d="M81.6484 4.73572C72.4862 1.1392 62.6087 -0.0854422 52.9044 1.13862C50.4461 1.4487 48.877 3.83179 49.3613 6.26177C49.8489 8.70782 52.2316 10.2704 54.7107 9.99684C56.523 9.79688 58.364 9.69426 60.2288 9.69426C88.0693 9.69426 110.638 32.5677 110.638 60.7834C110.638 88.9992 88.0693 111.873 60.2288 111.873C40.229 111.873 22.9495 100.069 14.803 82.9599C13.7402 80.7279 11.1709 79.548 8.86195 80.4312C6.58141 81.3035 5.41489 83.8594 6.43121 86.0795C10.5639 95.1071 16.8549 102.976 24.7614 108.955C33.8354 115.817 44.658 119.904 55.9503 120.732C67.2426 121.559 78.5328 119.094 88.4867 113.627C98.4407 108.159 106.642 99.9185 112.123 89.878C117.603 79.8375 120.134 68.4169 119.414 56.9657C118.695 45.5144 114.757 34.5111 108.065 25.2558C101.372 16.0005 92.2059 8.87999 81.6484 4.73572Z"/>
</mask>
<path fill-rule="evenodd" clip-rule="evenodd" d="M81.6484 4.73572C72.4862 1.1392 62.6087 -0.0854422 52.9044 1.13862C50.4461 1.4487 48.877 3.83179 49.3613 6.26177C49.8489 8.70782 52.2316 10.2704 54.7107 9.99684C56.523 9.79688 58.364 9.69426 60.2288 9.69426C88.0693 9.69426 110.638 32.5677 110.638 60.7834C110.638 88.9992 88.0693 111.873 60.2288 111.873C40.229 111.873 22.9495 100.069 14.803 82.9599C13.7402 80.7279 11.1709 79.548 8.86195 80.4312C6.58141 81.3035 5.41489 83.8594 6.43121 86.0795C10.5639 95.1071 16.8549 102.976 24.7614 108.955C33.8354 115.817 44.658 119.904 55.9503 120.732C67.2426 121.559 78.5328 119.094 88.4867 113.627C98.4407 108.159 106.642 99.9185 112.123 89.878C117.603 79.8375 120.134 68.4169 119.414 56.9657C118.695 45.5144 114.757 34.5111 108.065 25.2558C101.372 16.0005 92.2059 8.87999 81.6484 4.73572Z" fill="white"/>
<path d="M81.6484 4.73572L78.3598 13.1134L78.3598 13.1134L81.6484 4.73572ZM24.7614 108.955L19.3327 116.134H19.3327L24.7614 108.955ZM55.9503 120.732L56.6083 111.756L55.9503 120.732ZM88.4867 113.627L84.1539 105.738L84.1539 105.738L88.4867 113.627ZM119.414 56.9657L110.432 57.5297L110.432 57.5298L119.414 56.9657ZM14.803 82.9599L22.9288 79.0907L14.803 82.9599ZM6.43121 86.0795L-1.7521 89.8256L6.43121 86.0795ZM54.0307 10.0679C62.2415 9.03219 70.6009 10.0677 78.3598 13.1134L84.9369 -3.64195C74.3715 -7.78932 62.9759 -9.20307 51.7781 -7.79063L54.0307 10.0679ZM55.6978 18.9425C57.1829 18.7787 58.6945 18.6943 60.2288 18.6943V0.694263C58.0336 0.694263 55.863 0.815076 53.7237 1.05113L55.6978 18.9425ZM60.2288 18.6943C82.9855 18.6943 101.638 37.4242 101.638 60.7834H119.638C119.638 27.7111 93.1531 0.694263 60.2288 0.694263V18.6943ZM101.638 60.7834C101.638 84.1426 82.9855 102.873 60.2288 102.873V120.873C93.1531 120.873 119.638 93.8558 119.638 60.7834H101.638ZM60.2288 102.873C43.879 102.873 29.6612 93.2296 22.9288 79.0907L6.67714 86.8291C16.2378 106.908 36.5791 120.873 60.2288 120.873V102.873ZM30.19 101.777C23.4821 96.7041 18.1326 90.0186 14.6145 82.3333L-1.7521 89.8256C2.99512 100.196 10.2277 109.248 19.3327 116.134L30.19 101.777ZM56.6083 111.756C47.0549 111.055 37.8873 107.598 30.19 101.777L19.3327 116.134C29.7835 124.037 42.261 128.752 55.2923 129.708L56.6083 111.756ZM84.1539 105.738C75.7187 110.371 66.1613 112.456 56.6083 111.756L55.2923 129.708C68.3239 130.663 81.3468 127.817 92.8196 121.515L84.1539 105.738ZM104.223 85.566C99.5596 94.1099 92.5904 101.104 84.1539 105.738L92.8196 121.515C104.291 115.214 113.725 105.727 120.023 94.19L104.223 85.566ZM110.432 57.5298C111.045 67.2916 108.887 77.021 104.223 85.566L120.023 94.19C126.32 82.654 129.222 69.5423 128.397 56.4016L110.432 57.5298ZM100.772 30.5293C106.462 38.3992 109.819 47.7681 110.432 57.5297L128.397 56.4016C127.572 43.2607 123.052 30.6229 115.358 19.9823L100.772 30.5293ZM78.3598 13.1134C87.3009 16.6231 95.0818 22.6604 100.772 30.5293L115.358 19.9823C107.663 9.34048 97.111 1.13687 84.9369 -3.64195L78.3598 13.1134ZM22.9288 79.0907C20.0649 73.0761 12.7974 69.29 5.64664 72.0251L12.0773 88.8372C9.54448 89.806 7.41547 88.3797 6.67714 86.8291L22.9288 79.0907ZM5.64664 72.0251C-1.07115 74.5947 -5.11295 82.484 -1.7521 89.8256L14.6145 82.3333C15.9427 85.2348 14.234 88.0123 12.0773 88.8372L5.64664 72.0251ZM40.5349 8.02105C42.0331 15.5376 49.0954 19.671 55.6978 18.9425L53.7237 1.05113C55.3678 0.869719 57.6646 1.87806 58.1877 4.50248L40.5349 8.02105ZM51.7781 -7.79063C43.6828 -6.76951 39.1215 0.930003 40.5349 8.02105L58.1877 4.50248C58.6324 6.73358 57.2095 9.66691 54.0307 10.0679L51.7781 -7.79063Z" fill="#6090D9" mask="url(#path-4-inside-1_4_203)"/>
<defs>
<clipPath id="clip0_4_203">
<rect width="65.2361" height="52.8923" fill="white" transform="translate(27.6104 34.738)"/>
</clipPath>
</defs>
</svg>
