<svg width="120" height="121" viewBox="0 0 120 121" fill="none" xmlns="http://www.w3.org/2000/svg">
<ellipse cx="59.7704" cy="60.7834" rx="59.3056" ry="60.1049" fill="white"/>
<path d="M114.576 60.7834C114.576 91.5501 89.9821 116.388 59.7704 116.388C29.5587 116.388 4.96484 91.5501 4.96484 60.7834C4.96484 30.0166 29.5587 5.17847 59.7704 5.17847C89.9821 5.17847 114.576 30.0166 114.576 60.7834Z" stroke="#6090D9" stroke-opacity="0.15" stroke-width="9"/>
<g clip-path="url(#clip0_4_191)">
<path d="M59.7704 27.7903C41.7555 27.7903 27.1523 42.5902 27.1523 60.8479C27.1523 79.1057 41.7555 93.9056 59.7704 93.9056C77.7853 93.9056 92.3885 79.1057 92.3885 60.8479C92.3885 42.5902 77.7853 27.7903 59.7704 27.7903ZM58.2789 59.8122C57.8988 60.4547 57.2136 60.8479 56.4744 60.8479H56.4336C55.876 60.8479 55.3407 61.0732 54.9461 61.4731L54.2017 62.2276C53.7913 62.6435 53.7913 63.3193 54.2017 63.7352L54.9461 64.4896C55.3407 64.8895 55.5629 65.432 55.5629 65.9972V67.2462C55.5629 68.4246 54.6212 69.379 53.4585 69.379H52.6549C51.8579 69.379 51.1292 68.9231 50.7728 68.1993L47.7977 62.1703C47.4768 61.5198 46.6206 61.3785 46.1129 61.893L43.5521 64.487C43.1576 64.8868 42.6222 65.1121 42.0646 65.1121H33.8351C33.6128 63.7205 33.4655 62.3036 33.4655 60.8479C33.4655 46.1479 45.2659 34.1885 59.7704 34.1885C62.5995 34.1885 65.3207 34.6564 67.8762 35.4975L61.279 40.6334C60.6069 41.088 60.67 42.1077 61.3921 42.4743L62.8165 43.1954C63.5294 43.5566 63.9792 44.2951 63.9792 45.1029V55.5161C63.9792 56.1052 63.5083 56.5824 62.927 56.5824H62.5245C62.126 56.5824 61.7617 56.3545 61.5841 55.9933C61.3789 55.5774 60.8002 55.5547 60.5635 55.9533L58.2789 59.8122ZM80.8143 74.5016C80.8143 75.0667 80.592 75.6093 80.1975 76.0092L78.9388 77.2848C78.5442 77.6847 78.0089 77.91 77.4512 77.91H75.4573C74.8997 77.91 74.3643 77.6847 73.9698 77.2848L72.2586 75.5506C71.8287 75.1149 71.2948 74.7995 70.7089 74.6351C70.123 74.4706 69.5051 74.4627 68.9153 74.6122L66.1178 75.3213C65.9507 75.364 65.7798 75.3853 65.6075 75.3853H64.2475C63.6898 75.3853 63.1545 75.1601 62.7599 74.7602L61.1935 73.1726C60.9963 72.9724 60.8856 72.701 60.8857 72.4181V71.0585C60.8857 70.6226 61.1475 70.2307 61.5473 70.0681L66.7215 67.97C66.9819 67.8647 67.2291 67.7274 67.4567 67.5635L70.5751 65.3121C70.7533 65.1834 70.9667 65.1145 71.1854 65.1148H72.7755C73.2004 65.1148 73.5844 65.3734 73.7475 65.7719L74.4512 67.4848C74.4911 67.5819 74.5585 67.6648 74.6449 67.7232C74.7312 67.7815 74.8327 67.8127 74.9365 67.8127H75.4363C75.6704 67.8127 75.8769 67.6554 75.9413 67.4288L76.4937 65.5C76.5595 65.2721 76.7647 65.1161 76.9988 65.1161H77.7958C78.0865 65.1161 78.3219 65.3547 78.3219 65.6493V67.3728C78.3219 67.6554 78.4324 67.9274 78.6297 68.1273L80.1961 69.7149C80.5907 70.1148 80.813 70.6573 80.813 71.2225V74.5016H80.8143Z" fill="#6090D9"/>
</g>
<mask id="path-4-inside-1_4_191" fill="white">
<path fill-rule="evenodd" clip-rule="evenodd" d="M75.0532 2.70834C67.6738 0.713754 59.9977 0.18614 52.4465 1.1386C49.9882 1.44867 48.4191 3.83172 48.9035 6.26167C49.391 8.70766 51.7737 10.2702 54.2527 9.9967C56.0647 9.7968 57.9055 9.69421 59.77 9.69421C87.6105 9.69421 110.18 32.5676 110.18 60.7834C110.18 88.9991 87.6105 111.873 59.77 111.873C55.483 111.873 51.321 111.33 47.3472 110.31C44.929 109.688 42.3474 110.905 41.5276 113.264C40.7174 115.594 41.9343 118.16 44.3141 118.811C51.6694 120.823 59.3525 121.384 66.9427 120.447C76.0086 119.328 84.6969 116.102 92.3304 111.02C99.9638 105.938 106.336 99.1384 110.95 91.1506C115.565 83.1629 118.296 74.2029 118.932 64.9694C119.568 55.7358 118.092 46.4781 114.617 37.918C111.143 29.3579 105.765 21.7268 98.9021 15.6194C92.0395 9.51203 83.8777 5.09352 75.0532 2.70834Z"/>
</mask>
<path fill-rule="evenodd" clip-rule="evenodd" d="M75.0532 2.70834C67.6738 0.713754 59.9977 0.18614 52.4465 1.1386C49.9882 1.44867 48.4191 3.83172 48.9035 6.26167C49.391 8.70766 51.7737 10.2702 54.2527 9.9967C56.0647 9.7968 57.9055 9.69421 59.77 9.69421C87.6105 9.69421 110.18 32.5676 110.18 60.7834C110.18 88.9991 87.6105 111.873 59.77 111.873C55.483 111.873 51.321 111.33 47.3472 110.31C44.929 109.688 42.3474 110.905 41.5276 113.264C40.7174 115.594 41.9343 118.16 44.3141 118.811C51.6694 120.823 59.3525 121.384 66.9427 120.447C76.0086 119.328 84.6969 116.102 92.3304 111.02C99.9638 105.938 106.336 99.1384 110.95 91.1506C115.565 83.1629 118.296 74.2029 118.932 64.9694C119.568 55.7358 118.092 46.4781 114.617 37.918C111.143 29.3579 105.765 21.7268 98.9021 15.6194C92.0395 9.51203 83.8777 5.09352 75.0532 2.70834Z" fill="#C4C4C4"/>
<path d="M75.0532 2.70834L77.4016 -5.97989L75.0532 2.70834ZM66.9427 120.447L68.0455 129.379L66.9427 120.447ZM92.3304 111.02L97.3177 118.512L97.3177 118.512L92.3304 111.02ZM110.95 91.1506L118.743 95.6525V95.6525L110.95 91.1506ZM118.932 64.9694L127.911 65.5879L118.932 64.9694ZM114.617 37.918L122.957 34.5333L122.957 34.5333L114.617 37.918ZM98.9021 15.6194L92.9189 22.3426L98.9021 15.6194ZM47.3472 110.31L49.5862 101.592L47.3472 110.31ZM44.3141 118.811L46.6892 110.13L44.3141 118.811ZM54.2527 9.9967L53.2658 1.05098L54.2527 9.9967ZM53.5728 10.0679C59.9624 9.2619 66.4582 9.70815 72.7049 11.3966L77.4016 -5.97989C68.8894 -8.28064 60.033 -8.88962 51.3202 -7.79065L53.5728 10.0679ZM55.2396 18.9424C56.7246 18.7786 58.2359 18.6942 59.77 18.6942V0.694215C57.5751 0.694215 55.4048 0.814993 53.2658 1.05098L55.2396 18.9424ZM59.77 18.6942C82.5267 18.6942 101.18 37.4242 101.18 60.7834H119.18C119.18 27.711 92.6943 0.694215 59.77 0.694215V18.6942ZM101.18 60.7834C101.18 84.1426 82.5267 102.873 59.77 102.873V120.873C92.6943 120.873 119.18 93.8557 119.18 60.7834H101.18ZM59.77 102.873C56.245 102.873 52.8351 102.427 49.5862 101.592L45.1082 119.027C49.807 120.233 54.721 120.873 59.77 120.873V102.873ZM65.8398 111.515C59.4173 112.308 52.9155 111.834 46.6892 110.13L41.939 127.492C50.4232 129.813 59.2877 130.461 68.0455 129.379L65.8398 111.515ZM87.343 103.528C80.8701 107.837 73.5109 110.568 65.8398 111.515L68.0455 129.379C78.5062 128.088 88.5238 124.366 97.3177 118.512L87.343 103.528ZM103.157 86.6488C99.2314 93.4447 93.8165 99.2186 87.343 103.528L97.3177 118.512C106.111 112.658 113.441 104.832 118.743 95.6525L103.157 86.6488ZM109.954 64.3509C109.412 72.2213 107.083 79.8523 103.157 86.6488L118.743 95.6525C124.046 86.4734 127.181 76.1846 127.911 65.5879L109.954 64.3509ZM106.278 41.3028C109.237 48.592 110.496 56.4804 109.954 64.3509L127.911 65.5879C128.641 54.9913 126.947 44.3642 122.957 34.5333L106.278 41.3028ZM92.9189 22.3426C98.7447 27.5271 103.32 34.014 106.278 41.3028L122.957 34.5333C118.966 24.7019 112.785 15.9264 104.885 8.89622L92.9189 22.3426ZM72.7049 11.3966C80.1748 13.4156 87.0937 17.1584 92.9189 22.3426L104.885 8.89622C96.9853 1.86561 87.5807 -3.22857 77.4016 -5.97989L72.7049 11.3966ZM49.5862 101.592C43.142 99.9373 35.5496 103.05 33.0266 110.308L50.0286 116.219C49.1451 118.76 46.716 119.44 45.1082 119.027L49.5862 101.592ZM33.0266 110.308C30.6589 117.119 34.0958 125.346 41.939 127.492L46.6892 110.13C49.7728 110.974 50.7759 114.069 50.0286 116.219L33.0266 110.308ZM40.0771 8.02096C41.5753 15.5373 48.6374 19.6708 55.2396 18.9424L53.2658 1.05098C54.91 0.869589 57.2067 1.87797 57.7298 4.50238L40.0771 8.02096ZM51.3202 -7.79065C43.2247 -6.76953 38.6637 0.930106 40.0771 8.02096L57.7298 4.50238C58.1745 6.73333 56.7517 9.66688 53.5728 10.0679L51.3202 -7.79065Z" fill="#6090D9" mask="url(#path-4-inside-1_4_191)"/>
<defs>
<clipPath id="clip0_4_191">
<rect width="65.2361" height="68.2481" fill="white" transform="translate(27.1523 26.7239)"/>
</clipPath>
</defs>
</svg>
