<svg width="127" height="129" viewBox="0 0 127 129" fill="none" xmlns="http://www.w3.org/2000/svg">
<g filter="url(#filter0_d_4_215)">
<ellipse cx="63.41" cy="60.7834" rx="59.3056" ry="60.1049" fill="white"/>
<path d="M118.216 60.7834C118.216 91.5501 93.6217 116.388 63.41 116.388C33.1984 116.388 8.60449 91.5501 8.60449 60.7834C8.60449 30.0166 33.1984 5.17847 63.41 5.17847C93.6217 5.17847 118.216 30.0166 118.216 60.7834Z" stroke="#6090D9" stroke-opacity="0.15" stroke-width="9"/>
<g clip-path="url(#clip0_4_215)">
<path d="M43.8388 44.6552C46.54 44.6552 48.7315 42.4342 48.7315 39.6966C48.7315 36.959 46.54 34.7379 43.8388 34.7379C41.1376 34.7379 38.9461 36.959 38.9461 39.6966C38.9461 42.4342 41.1376 44.6552 43.8388 44.6552ZM82.9805 44.6552C85.6817 44.6552 87.8732 42.4342 87.8732 39.6966C87.8732 36.959 85.6817 34.7379 82.9805 34.7379C80.2793 34.7379 78.0878 36.959 78.0878 39.6966C78.0878 42.4342 80.2793 44.6552 82.9805 44.6552ZM95.7933 83.0951L91.3083 71.7315L87.1189 76.5249L86.915 78.4051L89.7385 85.5538C90.2482 86.8451 91.4714 87.6302 92.7659 87.6302C93.1736 87.6302 93.5813 87.5579 93.9789 87.3926C95.6506 86.7108 96.466 84.7893 95.7933 83.0951ZM92.3072 61.4217L90.4215 53.1366C89.9526 51.0705 88.5255 49.335 86.599 48.4982C84.7133 47.6717 82.6237 47.806 80.8807 48.8391C78.5668 50.2234 76.834 52.4031 75.9778 54.9754L74.826 58.4775L73.1951 59.5312V49.6139C73.1951 48.7048 72.4611 47.961 71.5642 47.961H55.2551C54.3581 47.961 53.6242 48.7048 53.6242 49.6139V59.5312L51.9831 58.4775L50.8313 54.9754C49.9853 52.3928 48.2422 50.2234 45.9284 48.8391C44.1752 47.806 42.0958 47.6717 40.21 48.4982C38.2835 49.335 36.8565 51.0705 36.3876 53.1366L34.5121 61.4217C34.0432 63.4878 34.5834 65.6778 35.9799 67.2791L42.8297 75.12L43.8592 84.686C44.0427 86.3699 45.4493 87.6302 47.1006 87.6302C47.2229 87.6302 47.335 87.6199 47.4574 87.6096C49.2514 87.4133 50.5357 85.7811 50.342 83.9629L49.3125 74.3762C49.1596 73.0332 48.6092 71.7832 47.7224 70.7605L43.3087 65.6985L45.1027 58.4361L45.7959 60.5436C46.2138 61.8349 47.0089 62.9609 48.2932 63.9113L53.5019 67.2687C53.9708 67.5683 54.7353 67.744 55.2551 67.7853H71.5642C72.084 67.744 72.8485 67.5683 73.3174 67.2687L78.5261 63.9113C79.8104 62.9609 80.6055 61.8452 81.0234 60.5436L81.7165 58.4361L83.5105 65.6985L79.0969 70.7605C78.2101 71.7832 77.6596 73.0332 77.5068 74.3762L76.4772 83.9629C76.2836 85.7811 77.5781 87.4133 79.3619 87.6096C79.4842 87.6199 79.5963 87.6302 79.7187 87.6302C81.3598 87.6302 82.7766 86.3802 82.9601 84.686L83.9896 75.12L90.8394 67.2791C92.2257 65.6778 92.7761 63.4878 92.3072 61.4217ZM35.511 71.7315L31.026 83.0951C30.3533 84.7893 31.1687 86.7108 32.8404 87.3926C34.5528 88.0744 36.4182 87.217 37.0807 85.5538L39.9042 78.4051L39.7004 76.5249L35.511 71.7315Z" fill="#6090D9"/>
</g>
<mask id="path-4-inside-1_4_215" fill="white">
<path fill-rule="evenodd" clip-rule="evenodd" d="M80.8489 3.33581C69.9607 -0.0590793 58.3698 -0.195002 47.4576 2.89379C45.0841 3.56564 43.8896 6.14137 44.7195 8.46436C45.5595 10.8158 48.152 12.0103 50.5649 11.3678C54.6658 10.2759 58.9709 9.69434 63.41 9.69434C91.2506 9.69434 113.82 32.5677 113.82 60.7835C113.82 88.9993 91.2506 111.873 63.41 111.873C35.5695 111.873 13.0003 88.9993 13.0003 60.7835C13.0003 60.4388 13.0037 60.095 13.0104 59.752C13.0583 57.3023 11.3147 55.1163 8.87891 54.8514C6.43122 54.5851 4.21561 56.3585 4.13619 58.8193C3.76526 70.3121 6.65566 81.7066 12.51 91.6293C19.1197 102.832 29.1482 111.55 41.0796 116.465C53.0111 121.38 66.197 122.225 78.6441 118.872C91.0913 115.519 102.123 108.15 110.072 97.88C118.021 87.6098 122.456 74.9962 122.705 61.9457C122.954 48.8952 119.004 36.1172 111.453 25.5432C103.901 14.9692 93.1588 7.17401 80.8489 3.33581Z"/>
</mask>
<path fill-rule="evenodd" clip-rule="evenodd" d="M80.8489 3.33581C69.9607 -0.0590793 58.3698 -0.195002 47.4576 2.89379C45.0841 3.56564 43.8896 6.14137 44.7195 8.46436C45.5595 10.8158 48.152 12.0103 50.5649 11.3678C54.6658 10.2759 58.9709 9.69434 63.41 9.69434C91.2506 9.69434 113.82 32.5677 113.82 60.7835C113.82 88.9993 91.2506 111.873 63.41 111.873C35.5695 111.873 13.0003 88.9993 13.0003 60.7835C13.0003 60.4388 13.0037 60.095 13.0104 59.752C13.0583 57.3023 11.3147 55.1163 8.87891 54.8514C6.43122 54.5851 4.21561 56.3585 4.13619 58.8193C3.76526 70.3121 6.65566 81.7066 12.51 91.6293C19.1197 102.832 29.1482 111.55 41.0796 116.465C53.0111 121.38 66.197 122.225 78.6441 118.872C91.0913 115.519 102.123 108.15 110.072 97.88C118.021 87.6098 122.456 74.9962 122.705 61.9457C122.954 48.8952 119.004 36.1172 111.453 25.5432C103.901 14.9692 93.1588 7.17401 80.8489 3.33581Z" fill="#C4C4C4"/>
<path d="M80.8489 3.33581L78.1699 11.9278L80.8489 3.33581ZM12.51 91.6293L20.2614 87.056L12.51 91.6293ZM41.0796 116.465L37.6517 124.786L41.0796 116.465ZM110.072 97.88L102.955 92.3713L110.072 97.88ZM122.705 61.9457L113.706 61.774V61.774L122.705 61.9457ZM111.453 25.5432L104.129 30.7737L111.453 25.5432ZM50.5649 11.3678L48.2491 2.67088L50.5649 11.3678ZM47.4576 2.89379L45.0064 -5.76597L47.4576 2.89379ZM49.9089 11.5535C59.1449 8.93921 68.9532 9.05412 78.1699 11.9278L83.5278 -5.25623C70.9682 -9.17228 57.5947 -9.32922 45.0064 -5.76597L49.9089 11.5535ZM52.8807 20.0648C56.2334 19.1721 59.7602 18.6943 63.41 18.6943V0.694336C58.1817 0.694336 53.0983 1.37966 48.2491 2.67088L52.8807 20.0648ZM63.41 18.6943C86.1668 18.6943 104.82 37.4243 104.82 60.7835H122.82C122.82 27.7111 96.3343 0.694336 63.41 0.694336V18.6943ZM104.82 60.7835C104.82 84.1427 86.1668 102.873 63.41 102.873V120.873C96.3343 120.873 122.82 93.8558 122.82 60.7835H104.82ZM63.41 102.873C40.6533 102.873 22.0003 84.1427 22.0003 60.7835H4.00033C4.00033 93.8558 30.4857 120.873 63.41 120.873V102.873ZM22.0003 60.7835C22.0003 60.4975 22.0031 60.2122 22.0087 59.9278L4.01211 59.5761C4.00427 59.9777 4.00033 60.3802 4.00033 60.7835H22.0003ZM20.2614 87.056C15.2802 78.6131 12.8153 68.9069 13.1315 59.1096L-4.85913 58.529C-5.28478 71.7172 -1.96886 84.8001 4.75855 96.2026L20.2614 87.056ZM44.5075 108.143C34.4022 103.981 25.8847 96.587 20.2614 87.056L4.75855 96.2026C12.3546 109.077 23.8941 119.119 37.6517 124.786L44.5075 108.143ZM76.3032 110.181C65.7693 113.019 54.6109 112.305 44.5075 108.143L37.6517 124.786C51.4113 130.454 66.6246 131.43 80.9851 127.562L76.3032 110.181ZM102.955 92.3713C96.1986 101.101 86.8385 107.343 76.3032 110.181L80.9851 127.562C95.3441 123.694 108.048 115.2 117.189 103.389L102.955 92.3713ZM113.706 61.774C113.494 72.9001 109.713 83.6399 102.955 92.3713L117.189 103.389C126.33 91.5797 131.417 77.0923 131.703 62.1174L113.706 61.774ZM104.129 30.7737C110.55 39.7659 113.919 50.6478 113.706 61.774L131.703 62.1174C131.989 47.1426 127.458 32.4686 118.777 20.3128L104.129 30.7737ZM78.1699 11.9278C88.5909 15.1771 97.7082 21.7834 104.129 30.7737L118.777 20.3128C110.094 8.15509 97.7267 -0.829052 83.5278 -5.25623L78.1699 11.9278ZM9.85222 45.9041C2.64302 45.1199 -4.59647 50.3908 -4.85913 58.529L13.1315 59.1096C13.0277 62.3262 10.2194 64.0503 7.90559 63.7986L9.85222 45.9041ZM22.0087 59.9278C22.1382 53.3009 17.3871 46.7238 9.85222 45.9041L7.90559 63.7986C5.24229 63.5089 3.97836 61.3036 4.01211 59.5761L22.0087 59.9278ZM36.2441 11.4921C38.8295 18.7294 46.4503 21.7771 52.8807 20.0648L48.2491 2.67088C49.8537 2.24361 52.2895 2.90218 53.1949 5.43658L36.2441 11.4921ZM45.0064 -5.76597C37.1843 -3.55184 33.8184 4.70222 36.2441 11.4921L53.1949 5.43658C53.9608 7.58053 52.984 10.6831 49.9089 11.5535L45.0064 -5.76597Z" fill="#6090D9" mask="url(#path-4-inside-1_4_215)"/>
</g>
<defs>
<filter id="filter0_d_4_215" x="0.104492" y="0.678467" width="126.611" height="128.21" filterUnits="userSpaceOnUse" color-interpolation-filters="sRGB">
<feFlood flood-opacity="0" result="BackgroundImageFix"/>
<feColorMatrix in="SourceAlpha" type="matrix" values="0 0 0 0 0 0 0 0 0 0 0 0 0 0 0 0 0 0 127 0" result="hardAlpha"/>
<feOffset dy="4"/>
<feGaussianBlur stdDeviation="2"/>
<feComposite in2="hardAlpha" operator="out"/>
<feColorMatrix type="matrix" values="0 0 0 0 0 0 0 0 0 0 0 0 0 0 0 0 0 0 0.25 0"/>
<feBlend mode="normal" in2="BackgroundImageFix" result="effect1_dropShadow_4_215"/>
<feBlend mode="normal" in="SourceGraphic" in2="effect1_dropShadow_4_215" result="shape"/>
</filter>
<clipPath id="clip0_4_215">
<rect width="65.2361" height="52.8923" fill="white" transform="translate(30.792 34.7379)"/>
</clipPath>
</defs>
</svg>
