<svg width="119" height="121" viewBox="0 0 119 121" fill="none" xmlns="http://www.w3.org/2000/svg">
<ellipse cx="59.5897" cy="60.7832" rx="59.3056" ry="60.1049" fill="white"/>
<path d="M114.395 60.7832C114.395 91.55 89.8014 116.388 59.5897 116.388C29.3781 116.388 4.78418 91.55 4.78418 60.7832C4.78418 30.0165 29.3781 5.17834 59.5897 5.17834C89.8014 5.17834 114.395 30.0165 114.395 60.7832Z" stroke="#6090D9" stroke-opacity="0.15" stroke-width="9"/>
<g clip-path="url(#clip0_4_227)">
<path d="M63.6681 49.3163V45.6877C60.075 41.0003 57.6669 35.4476 56.775 29.5205C56.5074 27.7772 54.3541 27.0928 53.2329 28.4487C50.5444 31.664 48.4294 35.4347 47.0023 39.6185C51.3599 44.5643 57.1955 47.9604 63.6681 49.3163ZM77.9385 35.9899C72.3068 35.9899 67.7454 40.6258 67.7454 46.3334V54.0038C54.4433 53.2032 43.1544 44.9 38.0578 33.1232C37.3571 31.5091 35.1018 31.4187 34.3628 33.007C32.2477 37.5395 31.0501 42.6015 31.0501 47.9475C31.0501 57.0901 35.3949 65.6257 41.893 71.9531C43.5749 73.5931 45.2185 74.949 46.8494 76.1886L28.5145 80.8374C27.1512 81.186 26.5396 82.7873 27.3041 83.9882C29.5211 87.4618 34.9999 93.3502 46.8239 93.8409C47.8433 93.8797 48.8626 93.5052 49.6398 92.8208L57.9472 85.5765H67.7454C79.0088 85.5765 88.1316 76.3436 88.1316 64.9283V44.2544L92.2089 35.9899H77.9385ZM77.9385 48.3995C76.8173 48.3995 75.8999 47.4697 75.8999 46.3334C75.8999 45.197 76.8173 44.2673 77.9385 44.2673C79.0597 44.2673 79.9771 45.197 79.9771 46.3334C79.9771 47.4697 79.0597 48.3995 77.9385 48.3995Z" fill="#6090D9"/>
</g>
<mask id="path-4-inside-1_4_227" fill="white">
<path fill-rule="evenodd" clip-rule="evenodd" d="M88.8904 8.52655C77.7518 2.11161 64.9006 -0.4554 52.2658 1.13849C49.8075 1.44861 48.2381 3.83175 48.7225 6.26172C49.21 8.70777 51.5928 10.2703 54.0719 9.99679C55.8841 9.79683 57.7252 9.69422 59.59 9.69422C87.4305 9.69422 110 32.5676 110 60.7834C110 88.9991 87.4305 111.873 59.59 111.873C31.7494 111.873 9.18024 88.9991 9.18024 60.7834C9.18024 47.6959 14.0359 35.7577 22.021 26.7185C23.6433 24.8819 23.7483 22.0922 22.083 20.2945C20.3857 18.4623 17.5038 18.3616 15.8303 20.2156C7.24382 29.7285 1.87448 41.8243 0.585652 54.7319C-0.855019 69.1601 2.90005 83.6297 11.1584 95.4726C19.4168 107.315 31.6216 115.733 45.5223 119.173C59.423 122.613 74.0821 120.843 86.7966 114.19C99.5111 107.538 109.424 96.4501 114.706 82.9726C119.989 69.4951 120.285 54.5364 115.541 40.8548C110.796 27.1732 101.331 15.6914 88.8904 8.52655Z"/>
</mask>
<path fill-rule="evenodd" clip-rule="evenodd" d="M88.8904 8.52655C77.7518 2.11161 64.9006 -0.4554 52.2658 1.13849C49.8075 1.44861 48.2381 3.83175 48.7225 6.26172C49.21 8.70777 51.5928 10.2703 54.0719 9.99679C55.8841 9.79683 57.7252 9.69422 59.59 9.69422C87.4305 9.69422 110 32.5676 110 60.7834C110 88.9991 87.4305 111.873 59.59 111.873C31.7494 111.873 9.18024 88.9991 9.18024 60.7834C9.18024 47.6959 14.0359 35.7577 22.021 26.7185C23.6433 24.8819 23.7483 22.0922 22.083 20.2945C20.3857 18.4623 17.5038 18.3616 15.8303 20.2156C7.24382 29.7285 1.87448 41.8243 0.585652 54.7319C-0.855019 69.1601 2.90005 83.6297 11.1584 95.4726C19.4168 107.315 31.6216 115.733 45.5223 119.173C59.423 122.613 74.0821 120.843 86.7966 114.19C99.5111 107.538 109.424 96.4501 114.706 82.9726C119.989 69.4951 120.285 54.5364 115.541 40.8548C110.796 27.1732 101.331 15.6914 88.8904 8.52655Z" fill="#C4C4C4"/>
<path d="M88.8904 8.52655L93.3821 0.727501L93.3821 0.7275L88.8904 8.52655ZM0.585652 54.7319L-8.36981 53.8376L0.585652 54.7319ZM11.1584 95.4726L18.5408 90.3247L11.1584 95.4726ZM45.5223 119.173L43.3603 127.909H43.3603L45.5223 119.173ZM86.7966 114.19L90.9691 122.165H90.9691L86.7966 114.19ZM114.706 82.9726L106.327 79.6883L114.706 82.9726ZM115.541 40.8548L107.037 43.8035H107.037L115.541 40.8548ZM53.3922 10.0677C64.0807 8.71936 74.9593 10.8892 84.3988 16.3256L93.3821 0.7275C80.5444 -6.66598 65.7204 -9.63016 51.1394 -7.79074L53.3922 10.0677ZM55.059 18.9425C56.5441 18.7786 58.0557 18.6942 59.59 18.6942V0.694218C57.3948 0.694218 55.2242 0.815031 53.0848 1.05108L55.059 18.9425ZM59.59 18.6942C82.3467 18.6942 101 37.4242 101 60.7834H119C119 27.711 92.5143 0.694218 59.59 0.694218V18.6942ZM101 60.7834C101 84.1426 82.3467 102.873 59.59 102.873V120.873C92.5143 120.873 119 93.8557 119 60.7834H101ZM59.59 102.873C36.8332 102.873 18.1802 84.1426 18.1802 60.7834H0.180239C0.180239 93.8557 26.6657 120.873 59.59 120.873V102.873ZM18.1802 60.7834C18.1802 49.96 22.1873 40.1242 28.7661 32.6769L15.2759 20.76C5.88443 31.3913 0.180239 45.4318 0.180239 60.7834H18.1802ZM9.54112 55.6261C10.6398 44.623 15.2157 34.3286 22.5113 26.2459L9.14935 14.1853C-0.728084 25.1285 -6.89081 39.0255 -8.36981 53.8376L9.54112 55.6261ZM18.5408 90.3247C11.5167 80.2519 8.31284 67.9272 9.54112 55.6261L-8.36981 53.8376C-10.0229 70.393 -5.71664 87.0075 3.77611 100.621L18.5408 90.3247ZM47.6843 110.436C35.9203 107.525 25.5628 100.394 18.5408 90.3247L3.77611 100.621C13.2709 114.236 27.323 123.941 43.3603 127.909L47.6843 110.436ZM82.624 106.216C71.8526 111.852 59.4463 113.347 47.6843 110.436L43.3603 127.909C59.3997 131.878 76.3115 129.834 90.9691 122.165L82.624 106.216ZM106.327 79.6883C101.828 91.1662 93.3985 100.578 82.624 106.216L90.9691 122.165C105.624 114.497 117.019 101.734 123.085 86.2569L106.327 79.6883ZM107.037 43.8035C111.079 55.4598 110.826 68.2081 106.327 79.6883L123.085 86.2569C129.151 70.7821 129.491 53.613 124.044 37.9061L107.037 43.8035ZM84.3988 16.3256C94.9442 22.3989 102.996 32.1493 107.037 43.8035L124.044 37.9061C118.597 22.1971 107.718 8.98386 93.3821 0.727501L84.3988 16.3256ZM28.6854 14.1783C23.7143 8.81191 14.6732 8.06537 9.14935 14.1853L22.5113 26.2459C20.3343 28.6577 17.0571 28.1126 15.4805 26.4107L28.6854 14.1783ZM28.7661 32.6769C33.1228 27.7451 33.8157 19.7165 28.6854 14.1783L15.4805 26.4107C13.6808 24.4679 14.1639 22.0188 15.2759 20.76L28.7661 32.6769ZM39.8961 8.02101C41.3943 15.5375 48.4566 19.671 55.059 18.9425L53.0848 1.05108C54.729 0.869674 57.0258 1.87801 57.5489 4.50243L39.8961 8.02101ZM51.1394 -7.79074C43.0447 -6.76958 38.4826 0.929413 39.8961 8.02101L57.5489 4.50243C57.9937 6.73408 56.5704 9.66679 53.3922 10.0677L51.1394 -7.79074Z" fill="#6090D9" mask="url(#path-4-inside-1_4_227)"/>
<defs>
<clipPath id="clip0_4_227">
<rect width="65.2361" height="66.1154" fill="white" transform="translate(26.9727 27.7256)"/>
</clipPath>
</defs>
</svg>
